<?xml version="1.0" standalone="no"?>
<!DOCTYPE svg PUBLIC "-//W3C//DTD SVG 20010904//EN"
 "http://www.w3.org/TR/2001/REC-SVG-20010904/DTD/svg10.dtd">
<svg version="1.0" xmlns="http://www.w3.org/2000/svg"
 width="512.000000pt" height="512.000000pt" viewBox="0 0 512.000000 512.000000"
 preserveAspectRatio="xMidYMid meet">

<g transform="translate(0.000000,512.000000) scale(0.100000,-0.100000)"
fill="#000000" stroke="none">
<path d="M977 5109 c-374 -55 -690 -283 -857 -618 -90 -179 -110 -280 -117
-568 l-5 -233 601 0 601 0 355 710 c195 390 355 712 355 715 0 9 -872 3 -933
-6z"/>
<path d="M1957 4405 l-357 -715 693 0 692 0 358 715 357 715 -693 0 -692 0
-358 -715z"/>
<path d="M3743 4406 c-194 -388 -353 -708 -353 -711 0 -3 390 -5 866 -5 l866
0 -5 233 c-4 158 -10 253 -21 299 -74 318 -255 572 -527 736 -124 76 -293 135
-419 148 l-55 6 -352 -706z"/>
<path d="M3 2148 c4 -1283 0 -1209 58 -1380 67 -203 214 -407 388 -539 86 -65
285 -163 384 -188 160 -41 187 -42 1782 -38 1399 3 1546 5 1607 20 238 59 403
150 564 311 161 161 252 327 311 564 15 60 17 187 20 1250 l4 1182 -2561 0
-2561 0 4 -1182z m2112 494 c88 -31 1247 -661 1288 -701 64 -60 91 -123 92
-211 0 -62 -5 -85 -27 -130 -15 -30 -42 -70 -60 -87 -29 -28 -1058 -591 -1243
-679 -59 -29 -80 -34 -140 -34 -120 0 -212 56 -264 162 l-31 61 0 697 c0 598
2 704 15 741 30 84 98 149 188 180 66 23 118 23 182 1z"/>
</g>
</svg>
